<svg width="120" height="41" viewBox="0 0 120 41" fill="none" xmlns="http://www.w3.org/2000/svg">
<mask id="mask0_7198_100323" style="mask-type:luminance" maskUnits="userSpaceOnUse" x="0" y="0" width="120" height="41">
<path d="M33.9618 8.04523H119.989V2.19971H32.3782C31.3169 2.19971 30.2889 2.62756 29.5721 3.41104C23.7044 9.84001 28.1997 17.3692 34.423 17.3692H55.7881C56.2048 17.3692 56.5438 17.7081 56.5438 18.1249V22.6757H28.5775C27.1884 16.1523 21.3817 11.2403 14.4471 11.2403C6.48453 11.2403 0 17.7192 0 25.6874C0 33.6555 6.47898 40.1345 14.4471 40.1345C21.4429 40.1345 27.2884 35.1391 28.6109 28.5268H89.1721V32.2219H95.0176V28.5268H99.9741V32.2219H105.82V28.5268H110.776V32.2219H116.622V28.5268H120V22.6813H116.622V12.3238H110.776V22.6813H105.82V12.3238H99.9741V22.6813H95.0176V12.3238H89.1721V22.6813H84.4212V14.4575H78.5757V22.6813H73.6192V14.4575H67.7737V22.6813H62.3782V15.1688C62.3782 13.1628 60.7501 11.5403 58.7498 11.5403H34.4175C33.0006 11.5403 31.9726 9.84001 33.2728 8.37307C33.4451 8.17859 33.6951 8.0619 33.9618 8.0619V8.04523ZM14.4471 34.1778C9.76292 34.1778 5.94555 30.366 5.94555 25.6763C5.94555 20.9865 9.75736 17.1747 14.4471 17.1747C19.1369 17.1747 22.9487 20.9865 22.9487 25.6763C22.9487 30.366 19.1369 34.1778 14.4471 34.1778Z" fill="white"/>
<path d="M80.8306 31.4205L76.3828 35.8683L80.8306 40.316L85.2783 35.8683L80.8306 31.4205Z" fill="white"/>
<path d="M69.2524 31.4183L64.8047 35.8661L69.2524 40.3138L73.7002 35.8661L69.2524 31.4183Z" fill="white"/>
<path d="M60.3003 31.4191L55.8525 35.8669L60.3003 40.3146L64.748 35.8669L60.3003 31.4191Z" fill="white"/>
<path d="M18.9507 1.45921e-05L14.5029 4.44775L18.9507 8.89549L23.3984 4.44775L18.9507 1.45921e-05Z" fill="white"/>
<path d="M9.99459 0.00473782L5.55078 4.44855L9.99459 8.89236L14.4384 4.44855L9.99459 0.00473782Z" fill="white"/>
</mask>
<g mask="url(#mask0_7198_100323)">
<path d="M144.249 -6.97974H-15.2529V44.5909H144.249V-6.97974Z" fill="url(#paint0_linear_7198_100323)"/>
</g>
<defs>
<linearGradient id="paint0_linear_7198_100323" x1="-15.2529" y1="18.8028" x2="144.249" y2="18.8028" gradientUnits="userSpaceOnUse">
<stop stop-color="#F9E471"/>
<stop offset="0.3" stop-color="#E5BB32"/>
<stop offset="0.66" stop-color="#F3D859"/>
<stop offset="1" stop-color="#F5DE6B"/>
</linearGradient>
</defs>
</svg>
