<svg width="40" height="40" viewBox="0 0 40 40" fill="none" xmlns="http://www.w3.org/2000/svg">
<g opacity="0.4">
<path d="M16.0322 26.6665L18.5322 29.1665L23.9489 24.1665" stroke="#E9C237" stroke-width="1.25" stroke-linecap="round" stroke-linejoin="round"/>
<path d="M14.6827 3.33325L8.64941 9.38325" stroke="#E9C237" stroke-width="2.5" stroke-miterlimit="10" stroke-linecap="round" stroke-linejoin="round"/>
<path d="M25.3164 3.33325L31.3497 9.38325" stroke="#E9C237" stroke-width="2.5" stroke-miterlimit="10" stroke-linecap="round" stroke-linejoin="round"/>
</g>
<path d="M3.33301 13.0833C3.33301 10 4.98301 9.75 7.03301 9.75H32.9663C35.0163 9.75 36.6663 10 36.6663 13.0833C36.6663 16.6667 35.0163 16.4167 32.9663 16.4167H7.03301C4.98301 16.4167 3.33301 16.6667 3.33301 13.0833Z" stroke="#E9C237" stroke-width="2.5"/>
<path d="M5.83301 16.6667L8.18301 31.0667C8.71634 34.3001 9.99967 36.6668 14.7663 36.6668H24.8163C29.9997 36.6668 30.7663 34.4001 31.3663 31.2668L34.1663 16.6667" stroke="#E9C237" stroke-width="2.5" stroke-linecap="round"/>
</svg>
