<svg width="64" height="64" viewBox="0 0 64 64" fill="none" xmlns="http://www.w3.org/2000/svg">
<path opacity="0.4" d="M32.4266 28.9866C32.1599 28.9599 31.8399 28.9599 31.5466 28.9866C25.1999 28.7733 20.1599 23.5733 20.1599 17.1733C20.1599 10.6399 25.4399 5.33325 31.9999 5.33325C38.5332 5.33325 43.8399 10.6399 43.8399 17.1733C43.8132 23.5733 38.7732 28.7733 32.4266 28.9866Z" stroke="#E9C237" stroke-width="3.5" stroke-linecap="round" stroke-linejoin="round"/>
<path d="M19.0934 38.8267C12.6401 43.1467 12.6401 50.1867 19.0934 54.4801C26.4268 59.3867 38.4534 59.3867 45.7868 54.4801C52.2401 50.1601 52.2401 43.1201 45.7868 38.8267C38.4801 33.9467 26.4534 33.9467 19.0934 38.8267Z" stroke="#E9C237" stroke-width="3.5" stroke-linecap="round" stroke-linejoin="round"/>
</svg>
