<svg width="64" height="64" viewBox="0 0 64 64" fill="none" xmlns="http://www.w3.org/2000/svg">
<path opacity="0.4" d="M47.3333 18.7998C46.6933 18.6932 46.0266 18.6665 45.3333 18.6665H18.6666C17.9199 18.6665 17.1999 18.7199 16.5066 18.8265C16.8799 18.0799 17.4133 17.3866 18.0533 16.7466L26.7199 8.05325C30.3733 4.42659 36.2933 4.42659 39.9466 8.05325L44.6133 12.7731C46.3199 14.4531 47.2266 16.5865 47.3333 18.7998Z" stroke="#E9C237" stroke-width="3.5" stroke-linecap="round" stroke-linejoin="round"/>
<path d="M24.0001 50.6667C24.0001 52.6667 23.4401 54.56 22.4534 56.16C20.6134 59.2533 17.2267 61.3333 13.3334 61.3333C9.44008 61.3333 6.05341 59.2533 4.21341 56.16C3.22675 54.56 2.66675 52.6667 2.66675 50.6667C2.66675 44.7733 7.44008 40 13.3334 40C19.2267 40 24.0001 44.7733 24.0001 50.6667Z" stroke="#E9C237" stroke-width="3.5" stroke-miterlimit="10" stroke-linecap="round" stroke-linejoin="round"/>
<path d="M17.3068 50.6133H9.36011" stroke="#E9C237" stroke-width="2" stroke-miterlimit="10" stroke-linecap="round" stroke-linejoin="round"/>
<path d="M13.3335 46.72V54.6933" stroke="#E9C237" stroke-width="2" stroke-miterlimit="10" stroke-linecap="round" stroke-linejoin="round"/>
<path d="M58.6666 32.0001V45.3334C58.6666 53.3334 53.3333 58.6667 45.3333 58.6667H20.3466C21.1733 57.9734 21.8933 57.1201 22.4533 56.1601C23.4399 54.5601 23.9999 52.6667 23.9999 50.6667C23.9999 44.7734 19.2266 40.0001 13.3333 40.0001C10.1333 40.0001 7.27992 41.4134 5.33325 43.6267V32.0001C5.33325 24.7467 9.70659 19.6801 16.5066 18.8267C17.1999 18.7201 17.9199 18.6667 18.6666 18.6667H45.3333C46.0266 18.6667 46.6933 18.6934 47.3333 18.8C54.2133 19.6 58.6666 24.6934 58.6666 32.0001Z" stroke="#E9C237" stroke-width="3.5" stroke-linecap="round" stroke-linejoin="round"/>
<path opacity="0.4" d="M58.6666 33.3333H50.6666C47.7333 33.3333 45.3333 35.7333 45.3333 38.6666C45.3333 41.5999 47.7333 43.9999 50.6666 43.9999H58.6666" stroke="#E9C237" stroke-width="3.5" stroke-linecap="round" stroke-linejoin="round"/>
</svg>
