<svg width="64" height="64" viewBox="0 0 64 64" fill="none" xmlns="http://www.w3.org/2000/svg">
<path opacity="0.4" d="M47.3335 18.7998C46.6935 18.6932 46.0268 18.6665 45.3335 18.6665H18.6668C17.9202 18.6665 17.2002 18.7199 16.5068 18.8265C16.8802 18.0799 17.4135 17.3866 18.0535 16.7466L26.7202 8.05325C30.3735 4.42659 36.2935 4.42659 39.9468 8.05325L44.6135 12.7731C46.3202 14.4531 47.2268 16.5865 47.3335 18.7998Z" stroke="white" stroke-width="3.5" stroke-linecap="round" stroke-linejoin="round"/>
<path d="M23.9998 50.6667C23.9998 52.6667 23.4398 54.56 22.4532 56.16C20.6132 59.2533 17.2265 61.3333 13.3332 61.3333C9.43984 61.3333 6.05317 59.2533 4.21317 56.16C3.2265 54.56 2.6665 52.6667 2.6665 50.6667C2.6665 44.7733 7.43984 40 13.3332 40C19.2265 40 23.9998 44.7733 23.9998 50.6667Z" stroke="white" stroke-width="3.5" stroke-miterlimit="10" stroke-linecap="round" stroke-linejoin="round"/>
<path d="M17.3065 50.6133H9.35986" stroke="white" stroke-width="2" stroke-miterlimit="10" stroke-linecap="round" stroke-linejoin="round"/>
<path d="M13.333 46.72V54.6933" stroke="white" stroke-width="2" stroke-miterlimit="10" stroke-linecap="round" stroke-linejoin="round"/>
<path d="M58.6668 32.0001V45.3334C58.6668 53.3334 53.3335 58.6667 45.3335 58.6667H20.3468C21.1735 57.9734 21.8935 57.1201 22.4535 56.1601C23.4402 54.5601 24.0002 52.6667 24.0002 50.6667C24.0002 44.7734 19.2268 40.0001 13.3335 40.0001C10.1335 40.0001 7.28016 41.4134 5.3335 43.6267V32.0001C5.3335 24.7467 9.70683 19.6801 16.5068 18.8267C17.2002 18.7201 17.9202 18.6667 18.6668 18.6667H45.3335C46.0268 18.6667 46.6935 18.6934 47.3335 18.8C54.2135 19.6 58.6668 24.6934 58.6668 32.0001Z" stroke="white" stroke-width="3.5" stroke-linecap="round" stroke-linejoin="round"/>
<path opacity="0.4" d="M58.6668 33.3333H50.6668C47.7335 33.3333 45.3335 35.7333 45.3335 38.6666C45.3335 41.5999 47.7335 43.9999 50.6668 43.9999H58.6668" stroke="white" stroke-width="3.5" stroke-linecap="round" stroke-linejoin="round"/>
</svg>
