<svg width="40" height="40" viewBox="0 0 40 40" fill="none" xmlns="http://www.w3.org/2000/svg">
<path opacity="0.4" d="M29.5831 11.7499C29.1831 11.6832 28.7664 11.6666 28.3331 11.6666H11.6664C11.1997 11.6666 10.7497 11.6999 10.3164 11.7665C10.5497 11.2999 10.8831 10.8666 11.2831 10.4666L16.6997 5.03325C18.9831 2.76659 22.6831 2.76659 24.9664 5.03325L27.8831 7.98318C28.9497 9.03318 29.5164 10.3665 29.5831 11.7499Z" stroke="#E9C237" stroke-width="2.5" stroke-linecap="round" stroke-linejoin="round"/>
<path d="M15.0003 31.6667C15.0003 32.9167 14.6503 34.1 14.0337 35.1C12.8837 37.0333 10.767 38.3333 8.33366 38.3333C5.90033 38.3333 3.78366 37.0333 2.63366 35.1C2.01699 34.1 1.66699 32.9167 1.66699 31.6667C1.66699 27.9833 4.65033 25 8.33366 25C12.017 25 15.0003 27.9833 15.0003 31.6667Z" stroke="#E9C237" stroke-width="2.5" stroke-miterlimit="10" stroke-linecap="round" stroke-linejoin="round"/>
<path d="M10.8173 31.6333H5.85059" stroke="#E9C237" stroke-miterlimit="10" stroke-linecap="round" stroke-linejoin="round"/>
<path d="M8.33398 29.2V34.1833" stroke="#E9C237" stroke-miterlimit="10" stroke-linecap="round" stroke-linejoin="round"/>
<path d="M36.6663 20.0001V28.3334C36.6663 33.3334 33.333 36.6667 28.333 36.6667H12.7163C13.233 36.2334 13.683 35.7001 14.033 35.1001C14.6497 34.1001 14.9997 32.9167 14.9997 31.6667C14.9997 27.9834 12.0163 25.0001 8.33301 25.0001C6.33301 25.0001 4.54967 25.8834 3.33301 27.2667V20.0001C3.33301 15.4667 6.06634 12.3001 10.3163 11.7667C10.7497 11.7001 11.1997 11.6667 11.6663 11.6667H28.333C28.7663 11.6667 29.183 11.6834 29.583 11.7501C33.883 12.2501 36.6663 15.4334 36.6663 20.0001Z" stroke="#E9C237" stroke-width="2.5" stroke-linecap="round" stroke-linejoin="round"/>
<path opacity="0.4" d="M36.6663 20.8333H31.6663C29.833 20.8333 28.333 22.3333 28.333 24.1666C28.333 25.9999 29.833 27.4999 31.6663 27.4999H36.6663" stroke="#E9C237" stroke-width="2.5" stroke-linecap="round" stroke-linejoin="round"/>
</svg>
