<svg width="25" height="24" viewBox="0 0 25 24" fill="none" xmlns="http://www.w3.org/2000/svg">
<path d="M15 9.25H2.5C2.09 9.25 1.75 8.91 1.75 8.5C1.75 8.09 2.09 7.75 2.5 7.75H15C15.41 7.75 15.75 8.09 15.75 8.5C15.75 8.91 15.41 9.25 15 9.25Z" fill="#E9C237"/>
<path d="M8.5 17.25H6.5C6.09 17.25 5.75 16.91 5.75 16.5C5.75 16.09 6.09 15.75 6.5 15.75H8.5C8.91 15.75 9.25 16.09 9.25 16.5C9.25 16.91 8.91 17.25 8.5 17.25Z" fill="#E9C237"/>
<path d="M15 17.25H11C10.59 17.25 10.25 16.91 10.25 16.5C10.25 16.09 10.59 15.75 11 15.75H15C15.41 15.75 15.75 16.09 15.75 16.5C15.75 16.91 15.41 17.25 15 17.25Z" fill="#E9C237"/>
<path d="M18.06 21.25H6.94C2.96 21.25 1.75 20.05 1.75 16.11V7.89C1.75 3.95 2.96 2.75 6.94 2.75H15C15.41 2.75 15.75 3.09 15.75 3.5C15.75 3.91 15.41 4.25 15 4.25H6.94C3.8 4.25 3.25 4.79 3.25 7.89V16.1C3.25 19.2 3.8 19.74 6.94 19.74H18.05C21.19 19.74 21.74 19.2 21.74 16.1V14.02C21.74 13.61 22.08 13.27 22.49 13.27C22.9 13.27 23.24 13.61 23.24 14.02V16.1C23.25 20.05 22.04 21.25 18.06 21.25Z" fill="#E9C237"/>
<path d="M20.5 10.25C20.4 10.25 20.31 10.23 20.21 10.19C19.93 10.07 19.75 9.8 19.75 9.5V3.5C19.75 3.09 20.09 2.75 20.5 2.75C20.91 2.75 21.25 3.09 21.25 3.5V7.69L21.97 6.97C22.26 6.68 22.74 6.68 23.03 6.97C23.32 7.26 23.32 7.74 23.03 8.03L21.03 10.03C20.89 10.17 20.7 10.25 20.5 10.25Z" fill="#E9C237"/>
<path d="M20.5004 10.25C20.3104 10.25 20.1204 10.18 19.9704 10.03L17.9704 8.03C17.6804 7.74 17.6804 7.26 17.9704 6.97C18.2604 6.68 18.7404 6.68 19.0304 6.97L21.0304 8.97C21.3204 9.26 21.3204 9.74 21.0304 10.03C20.8804 10.18 20.6904 10.25 20.5004 10.25Z" fill="#E9C237"/>
</svg>
