<svg width="25" height="24" viewBox="0 0 25 24" fill="none" xmlns="http://www.w3.org/2000/svg">
<path d="M12.4999 16.33C10.1099 16.33 8.16992 14.39 8.16992 12C8.16992 9.60998 10.1099 7.66998 12.4999 7.66998C14.8899 7.66998 16.8299 9.60998 16.8299 12C16.8299 14.39 14.8899 16.33 12.4999 16.33ZM12.4999 9.16998C10.9399 9.16998 9.66992 10.44 9.66992 12C9.66992 13.56 10.9399 14.83 12.4999 14.83C14.0599 14.83 15.3299 13.56 15.3299 12C15.3299 10.44 14.0599 9.16998 12.4999 9.16998Z" fill="#E9C237"/>
<path d="M12.5001 21.02C8.74008 21.02 5.19008 18.82 2.75008 15C1.69008 13.35 1.69008 10.66 2.75008 8.99998C5.20008 5.17998 8.75008 2.97998 12.5001 2.97998C16.2501 2.97998 19.8001 5.17998 22.2401 8.99998C23.3001 10.65 23.3001 13.34 22.2401 15C19.8001 18.82 16.2501 21.02 12.5001 21.02ZM12.5001 4.47998C9.27008 4.47998 6.18008 6.41998 4.02008 9.80998C3.27008 10.98 3.27008 13.02 4.02008 14.19C6.18008 17.58 9.27008 19.52 12.5001 19.52C15.7301 19.52 18.8201 17.58 20.9801 14.19C21.7301 13.02 21.7301 10.98 20.9801 9.80998C18.8201 6.41998 15.7301 4.47998 12.5001 4.47998Z" fill="#E9C237"/>
</svg>
