<svg width="24" height="24" viewBox="0 0 24 24" fill="none" xmlns="http://www.w3.org/2000/svg">
<path d="M7.17969 2H16.8197C18.9497 2 20.6797 3.74 20.6797 5.86V19.95C20.6797 21.75 19.3897 22.51 17.8097 21.64L12.9297 18.93C12.4097 18.64 11.5697 18.64 11.0597 18.93L6.17969 21.64C4.59969 22.52 3.30969 21.76 3.30969 19.95V5.86C3.31969 3.74 5.04969 2 7.17969 2ZM8.98969 9.75C9.95969 10.1 10.9797 10.28 11.9997 10.28C13.0197 10.28 14.0397 10.1 15.0097 9.75C15.3997 9.61 15.5997 9.18 15.4597 8.79C15.3097 8.4 14.8797 8.2 14.4897 8.34C12.8797 8.92 11.1097 8.92 9.49969 8.34C9.10969 8.2 8.67969 8.4 8.53969 8.79C8.39969 9.18 8.59969 9.61 8.98969 9.75Z" fill="#121212"/>
</svg>
