<svg width="20" height="20" viewBox="0 0 20 20" fill="none" xmlns="http://www.w3.org/2000/svg">
<path d="M9.99998 17.7083C9.84164 17.7083 9.68331 17.65 9.55831 17.525L4.49998 12.4667C4.25831 12.225 4.25831 11.825 4.49998 11.5833C4.74164 11.3417 5.14164 11.3417 5.38331 11.5833L9.99998 16.2L14.6166 11.5833C14.8583 11.3417 15.2583 11.3417 15.5 11.5833C15.7416 11.825 15.7416 12.225 15.5 12.4667L10.4416 17.525C10.3166 17.65 10.1583 17.7083 9.99998 17.7083Z" fill="#DC3545"/>
<path d="M10 17.5667C9.65833 17.5667 9.375 17.2833 9.375 16.9417V2.91666C9.375 2.57499 9.65833 2.29166 10 2.29166C10.3417 2.29166 10.625 2.57499 10.625 2.91666V16.9417C10.625 17.2833 10.3417 17.5667 10 17.5667Z" fill="#DC3545"/>
</svg>
