<svg width="32" height="33" viewBox="0 0 32 33" fill="none" xmlns="http://www.w3.org/2000/svg">
<path opacity="0.1" d="M16.0001 29.6899C23.3639 29.6899 29.3334 23.7203 29.3334 16.3565C29.3334 8.99273 23.3639 3.02319 16.0001 3.02319C8.63628 3.02319 2.66675 8.99273 2.66675 16.3565C2.66675 23.7203 8.63628 29.6899 16.0001 29.6899Z" fill="#595959"/>
<path d="M17.6799 22.0631C17.4266 22.0631 17.1732 21.9697 16.9732 21.7697L12.2666 17.0631C11.8799 16.6764 11.8799 16.0364 12.2666 15.6497L16.9732 10.9431C17.3599 10.5564 17.9999 10.5564 18.3866 10.9431C18.7732 11.3297 18.7732 11.9697 18.3866 12.3564L14.3866 16.3564L18.3866 20.3564C18.7732 20.7431 18.7732 21.3831 18.3866 21.7697C18.1999 21.9697 17.9466 22.0631 17.6799 22.0631Z" fill="#595959"/>
</svg>
