<svg width="20" height="20" viewBox="0 0 20 20" fill="none" xmlns="http://www.w3.org/2000/svg">
<path d="M15.0583 8.60001C14.9 8.60001 14.7416 8.54168 14.6166 8.41668L9.99998 3.80001L5.38331 8.41668C5.14164 8.65835 4.74164 8.65835 4.49998 8.41668C4.25831 8.17501 4.25831 7.77501 4.49998 7.53335L9.55831 2.47501C9.79998 2.23335 10.2 2.23335 10.4416 2.47501L15.5 7.53335C15.7416 7.77501 15.7416 8.17501 15.5 8.41668C15.3833 8.54168 15.2166 8.60001 15.0583 8.60001Z" fill="#28A745"/>
<path d="M10 17.7083C9.65833 17.7083 9.375 17.425 9.375 17.0833V3.05832C9.375 2.71665 9.65833 2.43332 10 2.43332C10.3417 2.43332 10.625 2.71665 10.625 3.05832V17.0833C10.625 17.425 10.3417 17.7083 10 17.7083Z" fill="#28A745"/>
</svg>
