<svg width="106" height="106" viewBox="0 0 106 106" fill="none" xmlns="http://www.w3.org/2000/svg">
<g filter="url(#filter0_d_7803_83051)">
<rect x="24" y="24" width="56" height="56" rx="28" fill="white" shape-rendering="crispEdges"/>
<path d="M58.0701 50.3199C57.8801 50.3199 57.6901 50.2499 57.5401 50.0999L52.0001 44.5599L46.4601 50.0999C46.1701 50.3899 45.6901 50.3899 45.4001 50.0999C45.1101 49.8099 45.1101 49.3299 45.4001 49.0399L51.4701 42.9699C51.7601 42.6799 52.2401 42.6799 52.5301 42.9699L58.6001 49.0399C58.8901 49.3299 58.8901 49.8099 58.6001 50.0999C58.4601 50.2499 58.2601 50.3199 58.0701 50.3199Z" fill="#E9C237"/>
<path d="M52 61.2499C51.59 61.2499 51.25 60.9099 51.25 60.4999V43.6699C51.25 43.2599 51.59 42.9199 52 42.9199C52.41 42.9199 52.75 43.2599 52.75 43.6699V60.4999C52.75 60.9099 52.41 61.2499 52 61.2499Z" fill="#E9C237"/>
</g>
<defs>
<filter id="filter0_d_7803_83051" x="0" y="0" width="106" height="106" filterUnits="userSpaceOnUse" color-interpolation-filters="sRGB">
<feFlood flood-opacity="0" result="BackgroundImageFix"/>
<feColorMatrix in="SourceAlpha" type="matrix" values="0 0 0 0 0 0 0 0 0 0 0 0 0 0 0 0 0 0 127 0" result="hardAlpha"/>
<feOffset dx="1" dy="1"/>
<feGaussianBlur stdDeviation="12.5"/>
<feComposite in2="hardAlpha" operator="out"/>
<feColorMatrix type="matrix" values="0 0 0 0 0.2 0 0 0 0 0.2 0 0 0 0 0.2 0 0 0 0.05 0"/>
<feBlend mode="normal" in2="BackgroundImageFix" result="effect1_dropShadow_7803_83051"/>
<feBlend mode="normal" in="SourceGraphic" in2="effect1_dropShadow_7803_83051" result="shape"/>
</filter>
</defs>
</svg>
