<svg width="24" height="24" viewBox="0 0 24 24" fill="none" xmlns="http://www.w3.org/2000/svg">
<path d="M12.0002 10.28C13.0202 10.28 14.0402 10.1 15.0102 9.74999C15.4002 9.60999 15.6002 9.17999 15.4602 8.78999C15.3102 8.39999 14.8802 8.19999 14.4902 8.33999C12.8802 8.91999 11.1102 8.91999 9.50024 8.33999C9.11024 8.19999 8.68024 8.39999 8.54024 8.78999C8.40024 9.17999 8.60024 9.60999 8.99024 9.74999C9.96024 10.1 10.9802 10.28 12.0002 10.28Z" fill="#121212"/>
<path d="M4.92969 22.75C5.43969 22.75 5.99969 22.6 6.53969 22.29L11.4197 19.58C11.7097 19.42 12.2797 19.42 12.5697 19.58L17.4497 22.29C18.4397 22.84 19.4497 22.9 20.2197 22.44C20.9897 21.99 21.4297 21.08 21.4297 19.95V5.86C21.4297 3.32 19.3597 1.25 16.8197 1.25H7.16969C4.62969 1.25 2.55969 3.32 2.55969 5.86V19.95C2.55969 21.08 2.99969 21.99 3.76969 22.44C4.11969 22.65 4.51969 22.75 4.92969 22.75ZM11.9997 17.96C11.5297 17.96 11.0697 18.06 10.6997 18.27L5.81969 20.98C5.30969 21.27 4.83969 21.33 4.53969 21.15C4.23969 20.97 4.06969 20.54 4.06969 19.95V5.86C4.06969 4.15 5.46969 2.75 7.17969 2.75H16.8197C18.5297 2.75 19.9297 4.15 19.9297 5.86V19.95C19.9297 20.54 19.7597 20.98 19.4597 21.15C19.1597 21.32 18.6997 21.27 18.1797 20.98L13.2997 18.27C12.9297 18.06 12.4697 17.96 11.9997 17.96Z" fill="#121212"/>
<path d="M4.92969 22.75C5.43969 22.75 5.99969 22.6 6.53969 22.29L11.4197 19.58C11.7097 19.42 12.2797 19.42 12.5697 19.58L17.4497 22.29C18.4397 22.84 19.4497 22.9 20.2197 22.44C20.9897 21.99 21.4297 21.08 21.4297 19.95V5.86C21.4297 3.32 19.3597 1.25 16.8197 1.25H7.16969C4.62969 1.25 2.55969 3.32 2.55969 5.86V19.95C2.55969 21.08 2.99969 21.99 3.76969 22.44C4.11969 22.65 4.51969 22.75 4.92969 22.75ZM11.9997 17.96C11.5297 17.96 11.0697 18.06 10.6997 18.27L5.81969 20.98C5.30969 21.27 4.83969 21.33 4.53969 21.15C4.23969 20.97 4.06969 20.54 4.06969 19.95V5.86C4.06969 4.15 5.46969 2.75 7.17969 2.75H16.8197C18.5297 2.75 19.9297 4.15 19.9297 5.86V19.95C19.9297 20.54 19.7597 20.98 19.4597 21.15C19.1597 21.32 18.6997 21.27 18.1797 20.98L13.2997 18.27C12.9297 18.06 12.4697 17.96 11.9997 17.96Z" fill="#121212"/>
</svg>
