<svg width="24" height="23" viewBox="0 0 24 23" fill="none" xmlns="http://www.w3.org/2000/svg">
<path d="M17.2397 21.2727H6.75969C3.95969 21.2727 2.17969 19.7112 2.01969 17.1023L1.49969 9.38805C1.41969 8.21921 1.84969 7.09714 2.70969 6.24623C3.55969 5.39532 4.75969 4.90908 5.99969 4.90908C6.31969 4.90908 6.62969 4.73142 6.77969 4.4509L7.49969 3.11376C8.08969 2.01973 9.56968 1.16882 10.8597 1.16882H13.1497C14.4397 1.16882 15.9097 2.01973 16.4997 3.10441L17.2197 4.4696C17.3697 4.73142 17.6697 4.90908 17.9997 4.90908C19.2397 4.90908 20.4397 5.39532 21.2897 6.24623C22.1497 7.10649 22.5797 8.21921 22.4997 9.38805L21.9797 17.1117C21.7997 19.7579 20.0697 21.2727 17.2397 21.2727ZM10.8597 2.57142C10.1197 2.57142 9.17969 3.11376 8.83969 3.74025L8.11969 5.08675C7.69969 5.84415 6.88969 6.31168 5.99969 6.31168C5.15969 6.31168 4.37968 6.6296 3.79969 7.19999C3.22969 7.77038 2.93969 8.51843 2.99969 9.29454L3.51969 17.0182C3.63968 18.907 4.72969 19.8701 6.75969 19.8701H17.2397C19.2597 19.8701 20.3497 18.907 20.4797 17.0182L20.9997 9.29454C21.0497 8.51843 20.7697 7.77038 20.1997 7.19999C19.6197 6.6296 18.8397 6.31168 17.9997 6.31168C17.1097 6.31168 16.2997 5.84415 15.8797 5.10545L15.1497 3.74025C14.8197 3.12311 13.8797 2.58077 13.1397 2.58077H10.8597V2.57142Z" fill="white"/>
<path d="M13.5 8.18183H10.5C10.09 8.18183 9.75 7.86391 9.75 7.48053C9.75 7.09716 10.09 6.77924 10.5 6.77924H13.5C13.91 6.77924 14.25 7.09716 14.25 7.48053C14.25 7.86391 13.91 8.18183 13.5 8.18183Z" fill="white"/>
<path d="M12 17.5325C9.79 17.5325 8 15.8587 8 13.7922C8 11.7257 9.79 10.0519 12 10.0519C14.21 10.0519 16 11.7257 16 13.7922C16 15.8587 14.21 17.5325 12 17.5325ZM12 11.4545C10.62 11.4545 9.5 12.5018 9.5 13.7922C9.5 15.0826 10.62 16.1299 12 16.1299C13.38 16.1299 14.5 15.0826 14.5 13.7922C14.5 12.5018 13.38 11.4545 12 11.4545Z" fill="white"/>
</svg>
