<svg width="16" height="17" viewBox="0 0 16 17" fill="none" xmlns="http://www.w3.org/2000/svg">
<path opacity="0.1" d="M8.00004 15.1667C11.6819 15.1667 14.6667 12.1819 14.6667 8.5C14.6667 4.8181 11.6819 1.83333 8.00004 1.83333C4.31814 1.83333 1.33337 4.8181 1.33337 8.5C1.33337 12.1819 4.31814 15.1667 8.00004 15.1667Z" fill="#121212"/>
<path d="M7.05334 10.8867C6.92 10.8867 6.79334 10.8333 6.7 10.74L4.81333 8.85333C4.62 8.66 4.62 8.34 4.81333 8.14667C5.00667 7.95333 5.32667 7.95333 5.52 8.14667L7.05334 9.68L10.48 6.25333C10.6733 6.06 10.9933 6.06 11.1867 6.25333C11.38 6.44667 11.38 6.76667 11.1867 6.96L7.40667 10.74C7.31334 10.8333 7.18667 10.8867 7.05334 10.8867Z" fill="#121212"/>
</svg>
