<svg width="16" height="17" viewBox="0 0 16 17" fill="none" xmlns="http://www.w3.org/2000/svg">
<path d="M4.66699 14.6666H11.3337C13.767 14.6666 15.167 13.2666 15.167 10.8333V6.16659C15.167 3.73325 13.767 2.33325 11.3337 2.33325H4.66699C2.23366 2.33325 0.833658 3.73325 0.833658 6.16659V10.8333C0.833658 13.2666 2.23366 14.6666 4.66699 14.6666ZM11.3337 3.33325C13.2403 3.33325 14.167 4.25992 14.167 6.16659V10.8333C14.167 12.7399 13.2403 13.6666 11.3337 13.6666H4.66699C2.76033 13.6666 1.83366 12.7399 1.83366 10.8333V6.16659C1.83366 4.25992 2.76033 3.33325 4.66699 3.33325H11.3337Z" fill="white"/>
<path d="M7.99982 9.07998C8.55982 9.07998 9.12649 8.90665 9.55982 8.55331L11.6465 6.88665C11.8598 6.71331 11.8998 6.39998 11.7265 6.18665C11.5532 5.97331 11.2398 5.93332 11.0265 6.10665L8.93983 7.77332C8.43316 8.17998 7.57316 8.17998 7.06649 7.77332L4.97982 6.10665C4.76649 5.93332 4.44649 5.96665 4.27982 6.18665C4.10649 6.39998 4.13982 6.71998 4.35982 6.88665L6.44649 8.55331C6.87315 8.90665 7.43982 9.07998 7.99982 9.07998Z" fill="white"/>
</svg>
