<svg width="24" height="25" viewBox="0 0 24 25" fill="none" xmlns="http://www.w3.org/2000/svg">
<g opacity="0.8">
<path d="M21.2699 9.72033C20.9799 9.26033 20.6699 8.83033 20.3499 8.43033C19.9799 7.96033 19.2799 7.92033 18.8599 8.34033L15.8599 11.3403C16.0799 12.0003 16.1199 12.7603 15.9199 13.5503C15.5699 14.9603 14.4299 16.1003 13.0199 16.4503C12.2299 16.6503 11.4699 16.6103 10.8099 16.3903C10.8099 16.3903 9.37995 17.8203 8.34995 18.8503C7.84995 19.3503 8.00995 20.2303 8.67995 20.4903C9.74995 20.9003 10.8599 21.1103 11.9999 21.1103C13.7799 21.1103 15.5099 20.5903 17.0899 19.6203C18.6999 18.6203 20.1499 17.1503 21.3199 15.2803C22.2699 13.7703 22.2199 11.2303 21.2699 9.72033Z" fill="#917244"/>
<path d="M14.0201 10.5207L9.98014 14.5607C9.47014 14.0407 9.14014 13.3207 9.14014 12.5407C9.14014 10.9707 10.4201 9.68066 12.0001 9.68066C12.7801 9.68066 13.5001 10.0107 14.0201 10.5207Z" fill="#917244"/>
<path d="M18.25 6.2907L14.86 9.6807C14.13 8.9407 13.12 8.5007 12 8.5007C9.76 8.5007 7.96 10.3107 7.96 12.5407C7.96 13.6607 8.41 14.6707 9.14 15.4007L5.76 18.7907H5.75C4.64 17.8907 3.62 16.7407 2.75 15.3807C1.75 13.8107 1.75 11.2607 2.75 9.6907C3.91 7.8707 5.33 6.4407 6.91 5.4607C8.49 4.5007 10.22 3.9707 12 3.9707C14.23 3.9707 16.39 4.7907 18.25 6.2907Z" fill="#917244"/>
<path d="M14.8601 12.5406C14.8601 14.1106 13.5801 15.4006 12.0001 15.4006C11.9401 15.4006 11.8901 15.4006 11.8301 15.3806L14.8401 12.3706C14.8601 12.4306 14.8601 12.4806 14.8601 12.5406Z" fill="#917244"/>
<path d="M21.7699 2.77041C21.4699 2.47041 20.9799 2.47041 20.6799 2.77041L2.22988 21.2304C1.92988 21.5304 1.92988 22.0204 2.22988 22.3204C2.37988 22.4604 2.56988 22.5404 2.76988 22.5404C2.96988 22.5404 3.15988 22.4604 3.30988 22.3104L21.7699 3.85041C22.0799 3.55041 22.0799 3.07041 21.7699 2.77041Z" fill="#917244"/>
</g>
</svg>
