<svg width="20" height="20" viewBox="0 0 20 20" fill="none" xmlns="http://www.w3.org/2000/svg">
<path d="M9.99967 18.9584C14.9413 18.9584 18.958 14.9417 18.958 10C18.958 5.05835 14.9413 1.04169 9.99967 1.04169C5.05801 1.04169 1.04134 5.05835 1.04134 10C1.04134 14.9417 5.05801 18.9584 9.99967 18.9584ZM9.99967 2.29169C14.2497 2.29169 17.708 5.75002 17.708 10C17.708 14.25 14.2497 17.7084 9.99967 17.7084C5.74967 17.7084 2.29134 14.25 2.29134 10C2.29134 5.75002 5.74967 2.29169 9.99967 2.29169Z" fill="#121212"/>
<path d="M12.4998 18.125H13.3331C13.6748 18.125 13.9581 17.8417 13.9581 17.5C13.9581 17.1583 13.6915 16.8833 13.3498 16.875C14.6581 12.4083 14.6581 7.59167 13.3498 3.125C13.6915 3.11667 13.9581 2.84167 13.9581 2.5C13.9581 2.15833 13.6748 1.875 13.3331 1.875H12.4998C12.2998 1.875 12.1081 1.975 11.9915 2.13333C11.8748 2.3 11.8415 2.50833 11.9081 2.7C13.4748 7.40833 13.4748 12.5917 11.9081 17.3083C11.8415 17.5 11.8748 17.7083 11.9915 17.875C12.1081 18.025 12.2998 18.125 12.4998 18.125Z" fill="#121212"/>
<path d="M7.49999 18.125C7.56666 18.125 7.63333 18.1167 7.69999 18.0917C8.02499 17.9833 8.20833 17.625 8.09166 17.3C6.52499 12.5917 6.52499 7.40832 8.09166 2.69165C8.19999 2.36665 8.02499 2.00832 7.69999 1.89999C7.36666 1.79165 7.01666 1.96665 6.90833 2.29165C5.24999 7.25832 5.24999 12.725 6.90833 17.6833C6.99166 17.9583 7.24166 18.125 7.49999 18.125Z" fill="#121212"/>
<path d="M10 14.3333C12.325 14.3333 14.6417 14.0083 16.875 13.35C16.8833 13.6833 17.1583 13.9583 17.5 13.9583C17.8417 13.9583 18.125 13.675 18.125 13.3333V12.5C18.125 12.3 18.025 12.1083 17.8667 11.9916C17.7 11.875 17.4917 11.8416 17.3 11.9083C12.5917 13.475 7.4 13.475 2.69167 11.9083C2.5 11.8416 2.29167 11.875 2.125 11.9916C1.95833 12.1083 1.86667 12.3 1.86667 12.5V13.3333C1.86667 13.675 2.15 13.9583 2.49167 13.9583C2.83333 13.9583 3.10833 13.6916 3.11667 13.35C5.35833 14.0083 7.675 14.3333 10 14.3333Z" fill="#121212"/>
<path d="M2.49985 8.12503C2.56652 8.12503 2.63319 8.1167 2.69985 8.0917C7.40819 6.52503 12.5999 6.52503 17.3082 8.0917C17.6415 8.20003 17.9915 8.02503 18.0999 7.70003C18.1999 7.3667 18.0249 7.0167 17.6999 6.90836C12.7332 5.25003 7.26652 5.25003 2.30819 6.90836C1.98319 7.0167 1.79985 7.37503 1.91652 7.70003C1.99152 7.95836 2.24152 8.12503 2.49985 8.12503Z" fill="#121212"/>
</svg>
