<svg width="38" height="34" viewBox="0 0 38 34" fill="none" xmlns="http://www.w3.org/2000/svg">
<path fill-rule="evenodd" clip-rule="evenodd" d="M28 11.5C28 11.9142 27.6642 12.25 27.25 12.25L11.25 12.25C10.8358 12.25 10.5 11.9142 10.5 11.5C10.5 11.0858 10.8358 10.75 11.25 10.75L27.25 10.75C27.6642 10.75 28 11.0858 28 11.5Z" fill="#202020"/>
<path fill-rule="evenodd" clip-rule="evenodd" d="M28 17C28 17.4142 27.6642 17.75 27.25 17.75L11.25 17.75C10.8358 17.75 10.5 17.4142 10.5 17C10.5 16.5858 10.8358 16.25 11.25 16.25L27.25 16.25C27.6642 16.25 28 16.5858 28 17Z" fill="#202020"/>
<path fill-rule="evenodd" clip-rule="evenodd" d="M28 22.5C28 22.9142 27.6642 23.25 27.25 23.25L11.25 23.25C10.8358 23.25 10.5 22.9142 10.5 22.5C10.5 22.0858 10.8358 21.75 11.25 21.75L27.25 21.75C27.6642 21.75 28 22.0858 28 22.5Z" fill="#202020"/>
</svg>
