<svg width="24" height="24" viewBox="0 0 24 24" fill="none" xmlns="http://www.w3.org/2000/svg">
<path d="M12 21.65C12.31 21.65 12.61 21.61 12.86 21.52C16.68 20.21 22.75 15.56 22.75 8.68998C22.75 5.18998 19.92 2.34998 16.44 2.34998C14.75 2.34998 13.17 3.00998 12 4.18998C10.83 3.00998 9.25 2.34998 7.56 2.34998C4.08 2.34998 1.25 5.19998 1.25 8.68998C1.25 15.57 7.32 20.21 11.14 21.52C11.39 21.61 11.69 21.65 12 21.65ZM16.44 3.84998C19.09 3.84998 21.25 6.01998 21.25 8.68998C21.25 15.52 14.68 19.32 12.37 20.11C12.19 20.17 11.8 20.17 11.62 20.11C9.32 19.32 2.74 15.53 2.74 8.68998C2.74 6.01998 4.9 3.84998 7.55 3.84998C9.07 3.84998 10.48 4.55998 11.39 5.78998C11.67 6.16998 12.31 6.16998 12.59 5.78998C13.52 4.54998 14.92 3.84998 16.44 3.84998Z" fill="#121212"/>
</svg>
