<svg width="50" height="66" viewBox="0 0 50 66" fill="none" xmlns="http://www.w3.org/2000/svg">
<path d="M44.8659 26.8031H44.7272V20.5126C44.7272 9.57365 35.7771 0.276685 24.8613 0.461699C14.2461 0.646713 5.64293 9.34238 5.64293 20.0038V20.6051C5.64293 21.5071 6.38299 22.2471 7.28493 22.2471H12.5347C13.4367 22.2471 14.1767 21.5071 14.1767 20.6051V20.4201C14.1767 14.5459 18.5939 9.38863 24.4681 9.0186C30.8511 8.62545 36.1703 13.6902 36.1703 19.9807V26.78H19.9815V26.8031H5.01851C2.2433 26.8956 0 29.1389 0 31.9372V60.3831C0 63.2277 2.31267 65.5404 5.15727 65.5404H44.8428C47.6874 65.5404 50.0001 63.2277 50.0001 60.3831V31.9604C50.0232 29.1158 47.7105 26.8031 44.8659 26.8031ZM28.0759 47.4553C27.6827 47.7328 27.5671 48.0335 27.5671 48.496C27.5902 50.5774 27.5902 52.6588 27.5671 54.7634C27.6134 55.6422 27.174 56.4747 26.3876 56.8679C24.5606 57.793 22.7336 56.4979 22.7336 54.7634V48.4729C22.7336 48.0566 22.6411 47.7559 22.2711 47.4784C20.3747 46.0908 19.7503 43.7088 20.6985 41.6042C21.6235 39.5691 23.8668 38.3665 25.9714 38.8059C28.3303 39.2684 29.9723 41.1879 29.9954 43.5237C30.0648 45.1657 29.3941 46.5071 28.0759 47.4553Z" fill="#E9C237"/>
</svg>
