<svg width="120" height="42" viewBox="0 0 120 42" fill="none" xmlns="http://www.w3.org/2000/svg">
<mask id="mask0_6845_82693" style="mask-type:luminance" maskUnits="userSpaceOnUse" x="0" y="0" width="120" height="42">
<path d="M33.9618 8.88721H119.989V3.04169H32.3782C31.3169 3.04169 30.2889 3.46954 29.5721 4.25302C23.7044 10.682 28.1997 18.2112 34.423 18.2112H55.7881C56.2048 18.2112 56.5438 18.5501 56.5438 18.9669V23.5177H28.5775C27.1884 16.9943 21.3817 12.0822 14.4471 12.0822C6.48453 12.0822 0 18.5612 0 26.5294C0 34.4975 6.47898 40.9765 14.4471 40.9765C21.4429 40.9765 27.2884 35.9811 28.6109 29.3688H89.1721V33.0639H95.0176V29.3688H99.9741V33.0639H105.82V29.3688H110.776V33.0639H116.622V29.3688H120V23.5233H116.622V13.1658H110.776V23.5233H105.82V13.1658H99.9741V23.5233H95.0176V13.1658H89.1721V23.5233H84.4212V15.2995H78.5757V23.5233H73.6192V15.2995H67.7737V23.5233H62.3782V16.0108C62.3782 14.0048 60.7501 12.3823 58.7498 12.3823H34.4175C33.0006 12.3823 31.9726 10.682 33.2728 9.21505C33.4451 9.02057 33.6951 8.90388 33.9618 8.90388V8.88721ZM14.4471 35.0198C9.76292 35.0198 5.94555 31.208 5.94555 26.5183C5.94555 21.8285 9.75736 18.0167 14.4471 18.0167C19.1369 18.0167 22.9487 21.8285 22.9487 26.5183C22.9487 31.208 19.1369 35.0198 14.4471 35.0198Z" fill="white"/>
<path d="M80.8303 32.2625L76.3826 36.7103L80.8303 41.158L85.2781 36.7103L80.8303 32.2625Z" fill="white"/>
<path d="M69.2527 32.2603L64.8049 36.7081L69.2527 41.1558L73.7004 36.7081L69.2527 32.2603Z" fill="white"/>
<path d="M60.3003 32.2612L55.8525 36.7089L60.3003 41.1566L64.748 36.7089L60.3003 32.2612Z" fill="white"/>
<path d="M18.9504 0.842056L14.5027 5.28979L18.9504 9.73753L23.3982 5.28979L18.9504 0.842056Z" fill="white"/>
<path d="M9.9941 0.846748L5.55029 5.29056L9.9941 9.73437L14.4379 5.29056L9.9941 0.846748Z" fill="white"/>
</mask>
<g mask="url(#mask0_6845_82693)">
<path d="M144.249 -6.13776H-15.2527V45.4329H144.249V-6.13776Z" fill="url(#paint0_linear_6845_82693)"/>
</g>
<defs>
<linearGradient id="paint0_linear_6845_82693" x1="-15.2527" y1="19.6448" x2="144.249" y2="19.6448" gradientUnits="userSpaceOnUse">
<stop stop-color="#F9E471"/>
<stop offset="0.3" stop-color="#E5BB32"/>
<stop offset="0.66" stop-color="#F3D859"/>
<stop offset="1" stop-color="#F5DE6B"/>
</linearGradient>
</defs>
</svg>
