<svg width="64" height="64" viewBox="0 0 64 64" fill="none" xmlns="http://www.w3.org/2000/svg">
<path opacity="0.3" d="M5.3335 25.9999C4.24016 25.9999 3.3335 25.0933 3.3335 23.9999V17.3333C3.3335 9.59992 9.62683 3.33325 17.3335 3.33325H24.0002C25.0935 3.33325 26.0002 4.23992 26.0002 5.33325C26.0002 6.42659 25.0935 7.33325 24.0002 7.33325H17.3335C11.8135 7.33325 7.3335 11.8133 7.3335 17.3333V23.9999C7.3335 25.0933 6.42683 25.9999 5.3335 25.9999Z" fill="#E9C237"/>
<path d="M58.6667 25.9999C57.5733 25.9999 56.6667 25.0933 56.6667 23.9999V17.3333C56.6667 11.8133 52.1867 7.33325 46.6667 7.33325H40C38.9067 7.33325 38 6.42659 38 5.33325C38 4.23992 38.9067 3.33325 40 3.33325H46.6667C54.3733 3.33325 60.6667 9.59992 60.6667 17.3333V23.9999C60.6667 25.0933 59.76 25.9999 58.6667 25.9999Z" fill="#E9C237"/>
<path opacity="0.3" d="M46.6665 60.6667H42.6665C41.5732 60.6667 40.6665 59.7601 40.6665 58.6667C40.6665 57.5734 41.5732 56.6667 42.6665 56.6667H46.6665C52.1865 56.6667 56.6665 52.1867 56.6665 46.6667V42.6667C56.6665 41.5734 57.5732 40.6667 58.6665 40.6667C59.7598 40.6667 60.6665 41.5734 60.6665 42.6667V46.6667C60.6665 54.4001 54.3732 60.6667 46.6665 60.6667Z" fill="#E9C237"/>
<path d="M24.0002 60.6667H17.3335C9.62683 60.6667 3.3335 54.4 3.3335 46.6667V40C3.3335 38.9067 4.24016 38 5.3335 38C6.42683 38 7.3335 38.9067 7.3335 40V46.6667C7.3335 52.1867 11.8135 56.6667 17.3335 56.6667H24.0002C25.0935 56.6667 26.0002 57.5733 26.0002 58.6667C26.0002 59.76 25.0935 60.6667 24.0002 60.6667Z" fill="#E9C237"/>
<path d="M24 14H18.6667C15.6267 14 14 15.6 14 18.6667V24C14 27.0667 15.6267 28.6667 18.6667 28.6667H24C27.04 28.6667 28.6667 27.0667 28.6667 24V18.6667C28.6667 15.6 27.04 14 24 14Z" fill="#E9C237"/>
<path opacity="0.3" d="M45.3335 14H40.0002C36.9602 14 35.3335 15.6 35.3335 18.6667V24C35.3335 27.0667 36.9602 28.6667 40.0002 28.6667H45.3335C48.3735 28.6667 50.0002 27.0667 50.0002 24V18.6667C50.0002 15.6 48.3735 14 45.3335 14Z" fill="#E9C237"/>
<path opacity="0.3" d="M24 35.3333H18.6667C15.6267 35.3333 14 36.9333 14 39.9999V45.3333C14 48.3999 15.6267 49.9999 18.6667 49.9999H24C27.04 49.9999 28.6667 48.3999 28.6667 45.3333V39.9999C28.6667 36.9333 27.04 35.3333 24 35.3333Z" fill="#E9C237"/>
<path d="M45.3335 35.3333H40.0002C36.9602 35.3333 35.3335 36.9333 35.3335 39.9999V45.3333C35.3335 48.3999 36.9602 49.9999 40.0002 49.9999H45.3335C48.3735 49.9999 50.0002 48.3999 50.0002 45.3333V39.9999C50.0002 36.9333 48.3735 35.3333 45.3335 35.3333Z" fill="#E9C237"/>
</svg>
