<svg width="24" height="24" viewBox="0 0 24 24" fill="none" xmlns="http://www.w3.org/2000/svg">
<path d="M3.38036 13.07C3.76036 13.07 4.08036 12.78 4.13036 12.4C4.37036 10.14 5.59036 8.09001 7.47036 6.79001C7.81036 6.55001 7.89036 6.09001 7.66036 5.75001C7.42036 5.41001 6.95036 5.33001 6.62036 5.56001C4.38036 7.11001 2.94036 9.55001 2.65036 12.24C2.61036 12.65 2.90036 13.02 3.32036 13.07C3.33036 13.07 3.36036 13.07 3.38036 13.07Z" fill="#121212"/>
<path d="M20.5101 13.12C20.5401 13.12 20.5601 13.12 20.5901 13.12C21.0001 13.07 21.3001 12.7 21.2601 12.29C20.9901 9.60001 19.5601 7.17001 17.3501 5.60001C17.0101 5.36001 16.5401 5.44001 16.3001 5.78001C16.0601 6.12001 16.1401 6.59001 16.4801 6.83001C18.3401 8.14001 19.5401 10.19 19.7701 12.45C19.8001 12.83 20.1301 13.12 20.5101 13.12Z" fill="#121212"/>
<path d="M11.94 22.61C13.42 22.61 14.83 22.27 16.15 21.61C16.52 21.42 16.67 20.97 16.48 20.6C16.29 20.23 15.84 20.08 15.47 20.27C13.31 21.36 10.71 21.38 8.53003 20.33C8.16003 20.15 7.71004 20.31 7.53004 20.68C7.35003 21.05 7.51003 21.5 7.88003 21.68C9.16003 22.3 10.52 22.61 11.94 22.61Z" fill="#121212"/>
<path d="M11.9397 8.44C13.8897 8.44 15.4697 6.86 15.4697 4.91C15.4697 2.96 13.8897 1.38 11.9397 1.38C9.98973 1.38 8.40973 2.96 8.40973 4.91C8.40973 6.86 9.99973 8.44 11.9397 8.44ZM11.9397 2.89C13.0597 2.89 13.9697 3.8 13.9697 4.92C13.9697 6.04 13.0597 6.95 11.9397 6.95C10.8197 6.95 9.90973 6.04 9.90973 4.92C9.90973 3.8 10.8297 2.89 11.9397 2.89Z" fill="#121212"/>
<path d="M19.1702 20.67C21.1202 20.67 22.7002 19.09 22.7002 17.14C22.7002 15.2 21.1202 13.61 19.1702 13.61C17.2202 13.61 15.6402 15.19 15.6402 17.14C15.6402 19.08 17.2202 20.67 19.1702 20.67ZM19.1702 15.11C20.2902 15.11 21.2002 16.02 21.2002 17.14C21.2002 18.26 20.2902 19.17 19.1702 19.17C18.0502 19.17 17.1402 18.26 17.1402 17.14C17.1402 16.02 18.0502 15.11 19.1702 15.11Z" fill="#292D32"/>
<path d="M4.83035 20.67C6.78035 20.67 8.36035 19.09 8.36035 17.14C8.36035 15.2 6.78035 13.61 4.83035 13.61C2.88035 13.61 1.30035 15.19 1.30035 17.14C1.31035 19.08 2.89035 20.67 4.83035 20.67ZM4.83035 15.11C5.95035 15.11 6.86035 16.02 6.86035 17.14C6.86035 18.26 5.95035 19.17 4.83035 19.17C3.71035 19.17 2.80035 18.26 2.80035 17.14C2.81035 16.02 3.71035 15.11 4.83035 15.11Z" fill="#292D32"/>
</svg>
